<?xml version="1.0" encoding="iso-8859-1"?>
<!-- Generator: Adobe Illustrator 19.0.0, SVG Export Plug-In . SVG Version: 6.00 Build 0)  -->
<svg version="1.1" id="Capa_1" xmlns="http://www.w3.org/2000/svg" xmlns:xlink="http://www.w3.org/1999/xlink" x="0px" y="0px"
	 viewBox="0 0 512 512" style="enable-background:new 0 0 512 512;" xml:space="preserve">
<g>
	<g>
		<path d="M487.524,391.252L280.972,184.707c4.129-13.742,6.344-28.398,6.344-42.382c0-36.971-15.045-73.653-41.281-100.641
			c-0.02-0.02-0.04-0.04-0.06-0.06C207.104,1.987,148.301-10.661,96.138,9.399c-6.378,2.457-11.07,7.989-12.474,14.682
			c-1.403,6.693,0.691,13.642,5.559,18.448l46.772,46.209l-10.929,32.379l-29.593,10.124L48.64,83.28
			c-4.746-4.861-11.601-6.995-18.267-5.7c-6.66,1.302-12.218,5.861-14.79,12.145c-7.888,19.294-11.567,36.004-11.567,52.6
			c0,36.978,15.045,73.66,41.281,100.648c26.169,26.914,62.75,42.348,100.373,42.348c10.762,0,21.376-1.215,31.687-3.605
			l210.097,210.097C401.371,505.267,419.47,512,437.522,512c18.254,0,36.454-6.888,50.243-20.677
			C514.814,463.334,514.713,418.448,487.524,391.252z M459.046,463.086c-11.755,11.755-31.311,11.628-43.355,0.007L197.524,244.92
			c-3.847-3.847-8.996-5.915-14.266-5.915c-2.121,0-4.27,0.336-6.358,1.021c-9.969,3.323-20.483,5.008-31.231,5.008
			c-26.8,0-52.862-10.99-71.491-30.15c-18.992-19.529-29.881-45.98-29.881-72.565c0-1.846,0.081-3.713,0.228-5.606l31.016,31.761
			c5.431,5.565,13.568,7.512,20.932,4.988l51.022-17.455c5.921-2.027,10.56-6.687,12.561-12.615l18.126-53.707
			c2.464-7.297,0.551-15.36-4.928-20.771L144.3,40.308c26.995-0.456,53.439,9.674,72.888,29.479
			c18.972,19.536,29.855,45.967,29.855,72.539c0,13.373-2.806,27.592-7.902,40.039c-3.075,7.512-1.343,16.132,4.397,21.872
			l215.501,215.501C470.787,431.486,470.68,451.042,459.046,463.086z"/>
	</g>
</g>
<g>
</g>
<g>
</g>
<g>
</g>
<g>
</g>
<g>
</g>
<g>
</g>
<g>
</g>
<g>
</g>
<g>
</g>
<g>
</g>
<g>
</g>
<g>
</g>
<g>
</g>
<g>
</g>
<g>
</g>
</svg>
